<svg id="Capa_1" enable-background="new 0 0 512 512" height="512" viewBox="0 0 512 512" width="512" xmlns="http://www.w3.org/2000/svg"><g><g fill="#00b3fe"><path d="m0 0h220.667v220.667h-220.667z"/><path d="m0 291.334h220.667v220.667h-220.667z"/></g><g fill="#0274f9"><path d="m291.334 0h220.666v220.667h-220.666z"/><path d="m291.334 291.334h220.666v220.667h-220.666z"/></g><path d="m95.33 95.33v321.34h321.34v-321.34zm291.34 291.34h-261.34v-261.34h261.34z" fill="#00358f"/><path d="m416.67 95.33v321.34h-160.67v-30h130.67v-261.34h-130.67v-30z" fill="#012453"/><g fill="#fee158"><path d="m110.333 168.417c32.028 0 58.084-26.056 58.084-58.083s-26.056-58.084-58.084-58.084c-32.027 0-58.083 26.056-58.083 58.083s26.056 58.084 58.083 58.084z"/><path d="m110.333 343.583c-32.027 0-58.083 26.056-58.083 58.083s26.056 58.083 58.083 58.083c32.028 0 58.084-26.056 58.084-58.083s-26.056-58.083-58.084-58.083z"/></g><g fill="#ffb528"><path d="m401.666 168.417c32.027 0 58.084-26.056 58.084-58.083s-26.056-58.084-58.084-58.084-58.083 26.056-58.083 58.083 26.056 58.084 58.083 58.084z"/><path d="m401.666 343.583c-32.027 0-58.083 26.056-58.083 58.083s26.056 58.083 58.083 58.083 58.084-26.056 58.084-58.083-26.056-58.083-58.084-58.083z"/></g></g></svg>