<?xml version="1.0" encoding="UTF-8" standalone="no"?><!-- Generator: Gravit.io --><svg xmlns="http://www.w3.org/2000/svg" xmlns:xlink="http://www.w3.org/1999/xlink" style="isolation:isolate" viewBox="363 336.588 480 488.36" width="480pt" height="488.36pt"><defs><clipPath id="_clipPath_pgxIgnZNHCSOgMmqZqVWVHCi65RWRhTc"><rect x="363" y="336.588" width="480" height="488.36"/></clipPath></defs><g clip-path="url(#_clipPath_pgxIgnZNHCSOgMmqZqVWVHCi65RWRhTc)"><g><path d=" M 619.47 361.706 C 614.245 361.706 609.333 363.741 605.639 367.435 C 604.633 368.441 603.752 369.537 603 370.705 C 602.248 369.537 601.367 368.441 600.361 367.435 C 596.667 363.741 591.755 361.706 586.53 361.706 C 566.663 361.706 550.5 377.869 550.5 397.736 L 550.5 410.088 L 550.5 438.912 C 550.5 440.617 551.883 442 553.588 442 C 559.525 442 564.688 438.63 567.27 433.704 C 573.459 433.173 578.614 428.979 580.554 423.304 C 588 422.207 593.735 415.776 593.735 408.029 L 593.735 401.853 C 593.735 396.744 597.891 392.588 603 392.588 C 608.109 392.588 612.265 396.744 612.265 401.853 L 612.265 408.029 C 612.265 415.776 618 422.207 625.446 423.304 C 627.386 428.979 632.541 433.173 638.73 433.704 C 641.312 438.63 646.475 442 652.412 442 C 654.117 442 655.5 440.617 655.5 438.912 L 655.5 410.088 L 655.5 397.736 C 655.5 377.869 639.337 361.706 619.47 361.706 L 619.47 361.706 Z  M 587.559 401.853 L 587.559 408.029 C 587.559 412.056 584.977 415.49 581.382 416.765 L 581.382 401.853 C 581.382 400.147 580 398.765 578.294 398.765 C 576.589 398.765 575.206 400.147 575.206 401.853 L 575.206 418.324 C 575.206 422.35 572.624 425.785 569.029 427.059 L 569.029 426.559 L 569.029 410.088 C 569.029 408.383 567.647 407 565.941 407 C 564.236 407 562.853 408.383 562.853 410.088 L 562.853 426.559 C 562.853 430.585 560.271 434.02 556.676 435.294 L 556.676 410.088 L 556.676 397.736 C 556.676 381.275 570.069 367.882 586.53 367.882 C 590.105 367.882 593.466 369.275 595.993 371.802 C 598.511 374.32 599.9 377.664 599.912 381.222 C 599.912 381.237 599.911 381.252 599.911 381.267 L 599.912 386.722 C 592.872 388.156 587.559 394.396 587.559 401.853 L 587.559 401.853 Z  M 643.147 426.559 L 643.147 410.088 C 643.147 408.383 641.764 407 640.059 407 C 638.353 407 636.971 408.383 636.971 410.088 L 636.971 426.559 L 636.971 427.059 C 633.376 425.785 630.794 422.35 630.794 418.324 L 630.794 401.853 C 630.794 400.147 629.411 398.765 627.706 398.765 C 626 398.765 624.618 400.147 624.618 401.853 L 624.618 416.765 C 621.023 415.491 618.441 412.056 618.441 408.029 L 618.441 401.853 C 618.441 394.396 613.128 388.156 606.088 386.722 L 606.089 381.266 C 606.089 381.252 606.089 381.237 606.088 381.222 C 606.1 377.664 607.489 374.32 610.007 371.802 C 612.534 369.275 615.895 367.882 619.47 367.882 C 635.931 367.882 649.324 381.275 649.324 397.736 L 649.324 410.088 L 649.324 435.294 C 645.729 434.02 643.147 430.585 643.147 426.559 Z " fill="rgb(0,0,0)"/><path d=" M 590.116 354.807 C 593.608 356.335 598.184 357.176 603 357.176 C 607.816 357.176 612.392 356.335 615.884 354.807 C 621.692 352.266 622.559 348.751 622.559 346.882 C 622.559 345.013 621.692 341.499 615.884 338.958 C 612.392 337.43 607.816 336.588 603 336.588 C 598.184 336.588 593.608 337.43 590.116 338.958 C 584.308 341.499 583.441 345.013 583.441 346.882 C 583.441 348.751 584.308 352.266 590.116 354.807 L 590.116 354.807 Z  M 592.591 344.616 C 595.281 343.44 599.075 342.765 603 342.765 C 606.925 342.765 610.719 343.44 613.409 344.616 C 615.678 345.609 616.382 346.625 616.382 346.882 C 616.382 347.14 615.678 348.156 613.409 349.149 C 610.719 350.325 606.925 351 603 351 C 599.075 351 595.281 350.325 592.591 349.149 C 590.322 348.156 589.618 347.14 589.618 346.882 C 589.618 346.625 590.322 345.609 592.591 344.616 L 592.591 344.616 Z " fill="rgb(0,0,0)"/></g><g><path d=" M 427 560.949 L 779 560.949 C 792.255 560.949 803 571.694 803 584.949 L 803 688.949 L 803 688.949 L 403 688.949 L 403 688.949 L 403 584.949 C 403 571.694 413.745 560.949 427 560.949 Z " fill="rgb(255,243,201)"/><path d=" M 779 560.949 L 747 560.949 C 760.255 560.949 771 571.694 771 584.949 L 771 688.949 L 803 688.949 L 803 584.949 C 803 571.694 792.255 560.949 779 560.949 Z " fill="rgb(255,234,184)"/><path d=" M 491 448.949 L 715 448.949 C 728.255 448.949 739 459.694 739 472.949 L 739 560.949 L 739 560.949 L 467 560.949 L 467 560.949 L 467 472.949 C 467 459.694 477.745 448.949 491 448.949 Z " fill="rgb(255,243,201)"/><path d=" M 715 448.949 L 683 448.949 C 696.255 448.949 707 459.694 707 472.949 L 707 560.949 L 739 560.949 L 739 472.949 C 739 459.694 728.255 448.949 715 448.949 Z " fill="rgb(255,234,184)"/><g><path d=" M 371 688.949 L 835 688.949 L 835 688.949 C 835 706.622 820.673 720.949 803 720.949 L 403 720.949 C 385.327 720.949 371 706.622 371 688.949 L 371 688.949 Z " fill="rgb(255,171,0)"/><path d=" M 659 784.949 L 547 784.949 C 529.327 784.949 515 799.276 515 816.949 L 691 816.949 C 691 799.275 676.673 784.949 659 784.949 Z " fill="rgb(255,171,0)"/><path d=" M 587 720.949 L 619 720.949 L 619 784.949 L 587 784.949 L 587 720.949 Z " fill="rgb(255,171,0)"/></g><g><path d=" M 779 562.949 L 427 562.949 C 413.745 562.949 403 573.694 403 586.949 L 403 634.309 C 425.359 637.747 447.552 627.196 459 607.685 C 474.81 634.195 509.117 642.869 535.626 627.059 C 543.591 622.309 550.249 615.651 555 607.685 C 570.81 634.195 605.117 642.869 631.626 627.059 C 639.591 622.309 646.249 615.651 651 607.685 C 666.81 634.195 701.117 642.869 727.626 627.059 C 735.591 622.309 742.249 615.651 747 607.685 C 758.448 627.196 780.641 637.747 803 634.309 L 803 586.949 C 803 573.694 792.255 562.949 779 562.949 L 779 562.949 Z " fill="rgb(255,171,0)"/><path d=" M 715 448.949 L 491 448.949 C 477.745 448.949 467 459.694 467 472.949 L 467 520.349 C 483.664 517.927 498.354 508.135 507 493.685 C 522.81 520.195 557.117 528.869 583.626 513.059 C 591.591 508.309 598.249 501.651 603 493.685 C 618.81 520.195 653.117 528.869 679.626 513.059 C 687.591 508.309 694.249 501.651 699 493.685 C 707.646 508.135 722.336 517.927 739 520.349 L 739 472.949 C 739 459.694 728.255 448.949 715 448.949 Z " fill="rgb(178,67,4)"/></g><g><g><path d=" M 499 584.949 L 515 584.949 L 515 600.949 L 499 600.949 L 499 584.949 Z " fill="rgb(252,91,104)"/></g><g><path d=" M 595 584.949 L 611 584.949 L 611 600.949 L 595 600.949 L 595 584.949 Z " fill="rgb(252,91,104)"/></g><g><path d=" M 691 584.949 L 707 584.949 L 707 600.949 L 691 600.949 L 691 584.949 Z " fill="rgb(252,91,104)"/></g><path d=" M 779 584.949 L 795 584.949 L 795 600.949 L 779 600.949 L 779 584.949 Z " fill="rgb(252,91,104)"/><path d=" M 411 584.949 L 427 584.949 L 427 600.949 L 411 600.949 L 411 584.949 Z " fill="rgb(252,91,104)"/><g><path d=" M 547 472.949 L 563 472.949 L 563 488.949 L 547 488.949 L 547 472.949 Z " fill="rgb(252,91,104)"/></g><g><path d=" M 643 472.949 L 659 472.949 L 659 488.949 L 643 488.949 L 643 472.949 Z " fill="rgb(252,91,104)"/></g><path d=" M 467 473.949 L 483 473.949 L 483 489.949 L 467 489.949 L 467 473.949 Z " fill="rgb(252,91,104)"/><path d=" M 723 472.949 L 739 472.949 L 739 488.949 L 723 488.949 L 723 472.949 Z " fill="rgb(252,91,104)"/></g><path d=" M 587 720.949 L 619 720.949 L 619 744.949 L 587 744.949 L 587 720.949 Z " fill="rgb(141,211,231)"/><path d=" M 835 680.949 L 811 680.949 L 811 584.949 C 811 567.276 796.673 552.949 779 552.949 L 747 552.949 L 747 472.949 C 747 455.276 732.673 440.949 715 440.949 L 491 440.948 C 473.327 440.948 459 455.275 459 472.948 L 459 552.948 L 427 552.948 C 409.327 552.948 395 567.275 395 584.948 L 395 680.948 L 371 680.948 C 366.582 680.948 363 684.53 363 688.948 C 363.026 711.028 380.92 728.922 403 728.948 L 579 728.948 L 579 776.948 L 547 776.948 C 524.92 776.974 507.026 794.868 507 816.948 C 507 821.366 510.582 824.948 515 824.948 L 691 824.948 C 695.418 824.948 699 821.366 699 816.948 C 698.974 794.868 681.08 776.974 659 776.948 L 627 776.948 L 627 728.948 L 803 728.948 C 825.08 728.922 842.974 711.028 843 688.948 C 843 684.53 839.418 680.949 835 680.949 Z  M 491 456.949 L 715 456.949 C 723.837 456.949 731 464.112 731 472.949 L 723 472.949 L 723 488.949 L 731 488.949 L 731 510.189 C 720.47 506.457 711.576 499.162 705.856 489.565 C 703.579 485.779 698.664 484.555 694.877 486.832 C 693.756 487.506 692.818 488.445 692.144 489.565 C 678.611 512.288 649.22 519.738 626.496 506.205 C 619.651 502.129 613.932 496.409 609.856 489.565 C 607.579 485.779 602.664 484.555 598.877 486.832 C 597.756 487.506 596.818 488.445 596.144 489.565 C 582.611 512.288 553.219 519.738 530.496 506.205 C 523.651 502.129 517.932 496.409 513.856 489.565 C 511.261 485.779 506.087 484.813 502.301 487.408 C 501.455 487.988 500.724 488.719 500.144 489.565 C 494.424 499.162 485.53 506.457 475 510.189 L 475 488.949 L 483 488.949 L 483 472.949 L 475 472.949 C 475 464.112 482.163 456.949 491 456.949 L 491 456.949 Z  M 475 526.853 C 487.401 523.683 498.555 516.84 507 507.221 C 530.292 533.731 570.665 536.339 597.175 513.046 C 599.24 511.232 601.186 509.286 603 507.221 C 626.292 533.731 666.665 536.339 693.175 513.046 C 695.24 511.232 697.186 509.286 699 507.221 C 707.445 516.84 718.599 523.683 731 526.853 L 731 552.949 L 475 552.949 L 475 526.853 Z  M 411 600.949 L 427 600.949 L 427 584.949 L 411 584.949 C 411 576.112 418.163 568.949 427 568.949 L 779 568.949 C 787.837 568.949 795 576.112 795 584.949 L 779 584.949 L 779 600.949 L 795 600.949 L 795 624.949 C 778.111 624.996 762.458 616.1 753.856 601.565 C 751.579 597.779 746.664 596.555 742.877 598.832 C 741.756 599.506 740.818 600.445 740.144 601.565 C 726.611 624.288 697.22 631.738 674.496 618.205 C 667.651 614.129 661.932 608.409 657.856 601.565 C 655.261 597.779 650.087 596.813 646.301 599.408 C 645.455 599.988 644.724 600.719 644.144 601.565 C 630.611 624.288 601.219 631.738 578.496 618.205 C 571.651 614.129 565.932 608.409 561.856 601.565 C 559.261 597.779 554.087 596.813 550.301 599.408 C 549.455 599.988 548.724 600.719 548.144 601.565 C 534.611 624.288 505.22 631.738 482.496 618.205 C 475.651 614.129 469.932 608.409 465.856 601.565 C 463.261 597.779 458.087 596.813 454.301 599.408 C 453.455 599.988 452.724 600.719 452.144 601.565 C 443.542 616.099 427.889 624.995 411 624.949 L 411 600.949 Z  M 411 640.949 C 429.395 641.021 446.912 633.094 459 619.229 C 482.292 645.739 522.665 648.347 549.175 625.054 C 551.24 623.24 553.186 621.294 555 619.229 C 578.292 645.739 618.665 648.347 645.175 625.054 C 647.24 623.24 649.186 621.294 651 619.229 C 674.292 645.739 714.665 648.347 741.175 625.054 C 743.24 623.24 745.186 621.294 747 619.229 C 759.088 633.094 776.605 641.021 795 640.949 L 795 680.949 L 411 680.949 L 411 640.949 Z  M 681.632 808.949 L 524.368 808.949 C 527.771 799.367 536.832 792.961 547 792.949 L 659 792.949 C 669.168 792.961 678.229 799.367 681.632 808.949 Z  M 611 776.949 L 595 776.949 L 595 728.949 L 611 728.949 L 611 776.949 Z  M 803 712.949 L 403 712.949 C 392.832 712.937 383.771 706.531 380.368 696.949 L 825.632 696.949 C 822.229 706.53 813.168 712.936 803 712.949 L 803 712.949 Z " fill="rgb(0,0,0)"/><path d=" M 547 472.949 L 563 472.949 L 563 488.949 L 547 488.949 L 547 472.949 Z " fill="rgb(0,0,0)"/><path d=" M 643 472.949 L 659 472.949 L 659 488.949 L 643 488.949 L 643 472.949 Z " fill="rgb(0,0,0)"/><path d=" M 499 584.949 L 515 584.949 L 515 600.949 L 499 600.949 L 499 584.949 Z " fill="rgb(0,0,0)"/><path d=" M 595 584.949 L 611 584.949 L 611 600.949 L 595 600.949 L 595 584.949 Z " fill="rgb(0,0,0)"/><path d=" M 691 584.949 L 707 584.949 L 707 600.949 L 691 600.949 L 691 584.949 Z " fill="rgb(0,0,0)"/></g></g></svg>